<?xml version="1.0" encoding="UTF-8" standalone="no"?>
<svg
   width="62.629341"
   height="43.405231"
   viewBox="0 0 62.629341 43.405231"
   fill="none"
   version="1.1"
   id="svg29"
   sodipodi:docname="Logo.svg"
   inkscape:version="1.2.1 (9c6d41e410, 2022-07-14, custom)"
   xmlns:inkscape="http://www.inkscape.org/namespaces/inkscape"
   xmlns:sodipodi="http://sodipodi.sourceforge.net/DTD/sodipodi-0.dtd"
   xmlns="http://www.w3.org/2000/svg"
   xmlns:svg="http://www.w3.org/2000/svg">
  <sodipodi:namedview
     id="namedview31"
     pagecolor="#505050"
     bordercolor="#eeeeee"
     borderopacity="1"
     inkscape:showpageshadow="0"
     inkscape:pageopacity="0"
     inkscape:pagecheckerboard="0"
     inkscape:deskcolor="#505050"
     showgrid="false"
     inkscape:zoom="6.8125"
     inkscape:cx="32.587156"
     inkscape:cy="11.376147"
     inkscape:window-width="958"
     inkscape:window-height="1005"
     inkscape:window-x="960"
     inkscape:window-y="0"
     inkscape:window-maximized="0"
     inkscape:current-layer="svg29" />
  <g
     clip-path="url(#clip0_55_1110)"
     id="g4"
     transform="matrix(1.5648011,0,0,1.4881777,-7.802992,-16.245989)">
    <path
       d="M 44.9557,34.0209 42.685,18.0625 c -0.5833,-4.1041 -4.1039,-7.1458 -8.2495,-7.1458 h -18.874 c -4.1456,0 -7.6662,3.0417 -8.2495,7.1458 L 5.04129,34.0209 c -0.45831,3.2083 2.02072,6.0625 5.24971,6.0625 1.4166,0 2.7498,-0.5625 3.7498,-1.5625 l 4.708,-4.6875 h 12.4993 l 4.6873,4.6875 c 0.9999,1 2.354,1.5625 3.7498,1.5625 3.2498,0 5.7288,-2.8542 5.2705,-6.0625 z M 22.9153,23.4167 h -4.1665 v 4.1667 h -2.0832 v -4.1667 h -4.1664 v -2.0833 h 4.1664 v -4.1667 h 2.0832 v 4.1667 h 4.1665 z m 8.3328,-2.0833 c -1.1457,0 -2.0832,-0.9375 -2.0832,-2.0834 0,-1.1458 0.9375,-2.0833 2.0832,-2.0833 1.1458,0 2.0833,0.9375 2.0833,2.0833 0,1.1459 -0.9375,2.0834 -2.0833,2.0834 z m 4.1665,6.25 c -1.1458,0 -2.0832,-0.9375 -2.0832,-2.0834 0,-1.1458 0.9374,-2.0833 2.0832,-2.0833 1.1457,0 2.0832,0.9375 2.0832,2.0833 0,1.1459 -0.9375,2.0834 -2.0832,2.0834 z"
       fill="#2a7ae4"
       id="path2" />
  </g>
  <defs
     id="defs27">
    <clipPath
       id="clip0_55_1110">
      <rect
         width="49.9972"
         height="50"
         fill="#ffffff"
         transform="translate(0,0.5)"
         id="rect24"
         x="0"
         y="0" />
    </clipPath>
  </defs>
</svg>
